<svg xmlns="http://www.w3.org/2000/svg" width="318" height="227" fill="none" viewBox="0 0 318 227"><circle cx="161.5" cy="113.5" r="113.5" fill="#EDEDED"/><g filter="url(#filter0_d)"><path fill="#fff" d="M150 44C150 36.268 156.268 30 164 30H299V105C299 112.732 292.732 119 285 119H164C156.268 119 150 112.732 150 105V44Z"/></g><rect width="83.295" height="6.846" x="203" y="50.538" fill="#9E9E9E" rx="3.423"/><rect width="95.846" height="6.846" x="190" y="63.09" fill="#DEDEDE" rx="3.423"/><rect width="95.846" height="6.846" x="190" y="85.91" fill="#DEDEDE" rx="3.423"/><rect width="116.385" height="6.846" x="170" y="74.5" fill="#DEDEDE" rx="3.423"/><rect width="70.744" height="6.846" x="215" y="97.32" fill="#DEDEDE" rx="3.423"/><g filter="url(#filter1_d)"><path fill="#fff" d="M9 70H200C207.732 70 214 76.268 214 84V167C214 174.732 207.732 181 200 181H23C15.268 181 9 174.732 9 167V70Z"/></g><rect width="87.515" height="7.744" x="29.38" y="89.361" fill="#9E9E9E" rx="3.872"/><rect width="118.684" height="7.744" x="29.38" y="103.558" fill="#DEDEDE" rx="3.872"/><rect width="115.088" height="7.744" x="29.38" y="129.372" fill="#DEDEDE" rx="3.872"/><rect width="141.462" height="7.744" x="29.38" y="116.465" fill="#DEDEDE" rx="3.872"/><rect width="82.719" height="7.744" x="29.38" y="142.279" fill="#DEDEDE" rx="3.872"/><circle cx="290.5" cy="181.5" r="3.5" stroke="#fff" stroke-width="2"/><circle cx="247.5" cy="7.5" r="3.5" stroke="#fff" stroke-width="2"/><circle cx="38.5" cy="49.5" r="3.5" stroke="#fff" stroke-width="2"/><circle cx="66.5" cy="192.5" r="3.5" stroke="#fff" stroke-width="2"/><rect width="3.5" height="14" x="290.25" y="149" fill="#fff" rx="1.75"/><rect width="3.5" height="14" x="285" y="157.75" fill="#fff" rx="1.75" transform="rotate(-90 285 157.75)"/><rect width="3.5" height="14" x="98.25" fill="#fff" rx="1.75"/><rect width="3.5" height="14" x="93" y="8.75" fill="#fff" rx="1.75" transform="rotate(-90 93 8.75)"/><rect width="3.5" height="14" x="274.25" y="9" fill="#fff" rx="1.75"/><rect width="3.5" height="14" x="269" y="17.75" fill="#fff" rx="1.75" transform="rotate(-90 269 17.75)"/><rect width="3.5" height="14" x="14.25" y="190" fill="#fff" rx="1.75"/><rect width="3.5" height="14" x="9" y="198.75" fill="#fff" rx="1.75" transform="rotate(-90 9 198.75)"/><rect width="6" height="6" x="253.5" y="204.5" stroke="#fff" rx="1.5"/><rect width="6" height="6" x="60.5" y="27.5" stroke="#fff" rx="1.5"/><defs><filter id="filter0_d" width="177" height="117" x="141" y="26" color-interpolation-filters="sRGB" filterUnits="userSpaceOnUse"><feFlood flood-opacity="0" result="BackgroundImageFix"/><feColorMatrix fill="#fff" in="SourceAlpha" type="matrix" values="0 0 0 0 0 0 0 0 0 0 0 0 0 0 0 0 0 0 127 0"/><feOffset dx="5" dy="10"/><feGaussianBlur stdDeviation="7"/><feColorMatrix fill="#fff" type="matrix" values="0 0 0 0 0 0 0 0 0 0 0 0 0 0 0 0 0 0 0.03 0"/><feBlend in2="BackgroundImageFix" mode="normal" result="effect1_dropShadow"/><feBlend in="SourceGraphic" in2="effect1_dropShadow" mode="normal" result="shape"/></filter><filter id="filter1_d" width="233" height="139" x="0" y="60" color-interpolation-filters="sRGB" filterUnits="userSpaceOnUse"><feFlood flood-opacity="0" result="BackgroundImageFix"/><feColorMatrix fill="#fff" in="SourceAlpha" type="matrix" values="0 0 0 0 0 0 0 0 0 0 0 0 0 0 0 0 0 0 127 0"/><feOffset dx="5" dy="4"/><feGaussianBlur stdDeviation="7"/><feColorMatrix fill="#fff" type="matrix" values="0 0 0 0 0 0 0 0 0 0 0 0 0 0 0 0 0 0 0.1 0"/><feBlend in2="BackgroundImageFix" mode="normal" result="effect1_dropShadow"/><feBlend in="SourceGraphic" in2="effect1_dropShadow" mode="normal" result="shape"/></filter></defs></svg>